<svg width="24" height="27" viewBox="0 0 24 27" fill="none" xmlns="http://www.w3.org/2000/svg">
<path d="M20.2286 0.125488H3.77143C1.69097 0.125488 0 1.76949 0 3.79216V12.8442C0 17.5308 2.39451 21.8788 6.40457 24.4788C8.06674 25.5575 10.0018 26.1255 12 26.1255C13.9982 26.1255 15.9333 25.5562 17.5954 24.4788C21.6055 21.8802 24 17.5308 24 12.8442V3.79216C24 1.76949 22.309 0.125488 20.2286 0.125488ZM21.9429 12.8442C21.9429 16.8602 19.8912 20.5882 16.4544 22.8148C13.8075 24.5308 10.1925 24.5308 7.5456 22.8148C4.1088 20.5882 2.05714 16.8602 2.05714 12.8442V3.79216C2.05714 2.87349 2.82651 2.12549 3.77143 2.12549H20.2286C21.1735 2.12549 21.9429 2.87349 21.9429 3.79216V12.8442ZM5.96571 9.72549C5.62697 10.1655 4.97966 10.2562 4.52571 9.92549C4.07177 9.59349 3.97989 8.96682 4.32137 8.52549C5.00709 7.63616 6.0576 7.12549 7.20137 7.12549C8.34514 7.12549 9.39566 7.63616 10.0814 8.52549C10.4229 8.96816 10.331 9.59482 9.87703 9.92549C9.69189 10.0602 9.4752 10.1255 9.26126 10.1255C8.9472 10.1255 8.63863 9.98682 8.43703 9.72549C7.84732 8.96282 6.55543 8.96282 5.96571 9.72549ZM16.8425 16.4188C17.2443 16.8095 17.2443 17.4428 16.8425 17.8335C16.6423 18.0282 16.379 18.1268 16.1157 18.1268C15.8523 18.1268 15.589 18.0295 15.3888 17.8335C13.5223 16.0188 10.4818 16.0188 8.61531 17.8335C8.21349 18.2242 7.56206 18.2242 7.16023 17.8335C6.7584 17.4428 6.7584 16.8095 7.16023 16.4188C9.8304 13.8228 14.171 13.8228 16.8425 16.4188ZM19.68 8.52549C20.0215 8.96816 19.9296 9.59482 19.4757 9.92549C19.2905 10.0602 19.0738 10.1255 18.8599 10.1255C18.5458 10.1255 18.2373 9.98682 18.0357 9.72549C17.4459 8.96282 16.1554 8.96282 15.5657 9.72549C15.227 10.1655 14.5797 10.2562 14.1257 9.92549C13.6718 9.59349 13.5799 8.96682 13.9214 8.52549C14.6071 7.63616 15.6576 7.12549 16.8014 7.12549C17.9451 7.12549 18.9943 7.63616 19.68 8.52549Z" fill="white"/>
</svg>
