<svg width="26" height="27" viewBox="0 0 26 27" fill="none" xmlns="http://www.w3.org/2000/svg">
<path d="M14.2581 6.77419V7.6737H15.0969V6.77419C15.5812 6.6207 15.9356 6.17241 15.9356 5.63815C15.9356 5.18232 15.6823 4.77219 15.2738 4.56754L14.4561 4.15867C14.334 4.09786 14.2581 3.97499 14.2581 3.83828C14.2581 3.64119 14.4188 3.48015 14.6163 3.48015H14.7387C14.9362 3.48015 15.0969 3.64119 15.0969 3.83828V3.89951H15.9356V3.83828C15.9356 3.30361 15.5812 2.85532 15.0969 2.70225V1.80273H14.2581V2.70225C13.7738 2.85573 13.4194 3.30402 13.4194 3.83828C13.4194 4.29412 13.6727 4.70425 14.0812 4.9089L14.8989 5.31777C15.0209 5.37857 15.0969 5.50144 15.0969 5.63815C15.0969 5.83525 14.9362 5.99628 14.7387 5.99628H14.6163C14.4188 5.99628 14.2581 5.83525 14.2581 5.63815V5.15757H13.4194V5.63815C13.4194 6.17241 13.7738 6.6207 14.2581 6.77419Z" fill="white"/>
<path d="M4.41665 7.96323C5.3279 8.32807 6.28781 8.51258 7.26952 8.51258C7.46619 8.51258 7.66287 8.50504 7.85871 8.48994L11.6354 8.19933C12.4783 8.94075 13.5489 9.35129 14.6774 9.35129C17.2208 9.35129 19.2903 7.28178 19.2903 4.73839C19.2903 2.195 17.2208 0.125488 14.6774 0.125488C14.0731 0.125488 13.4969 0.245424 12.9673 0.457617C12.1835 0.145198 11.3285 0.0487463 10.4897 0.188391L6.57632 0.840908C6.0341 0.931069 5.499 1.08036 4.98613 1.28584L3.74442 1.78236L0 0.846359V8.63084L3.74442 7.69484L4.41665 7.96323ZM18.4516 4.73839C18.4516 6.81965 16.7583 8.51258 14.6774 8.51258C13.98 8.51258 13.3095 8.3201 12.7253 7.96533C13.1392 7.71958 13.4194 7.27213 13.4194 6.76388C13.4194 6.11933 12.9824 5.55991 12.3571 5.40391L11.0999 5.08939C11.0412 5.07471 10.9837 5.05626 10.9255 5.04075C10.9179 4.93968 10.9032 4.83946 10.9032 4.73839C10.9032 2.65713 12.5966 0.964198 14.6774 0.964198C16.7583 0.964198 18.4516 2.65713 18.4516 4.73839ZM10.0658 4.77697C9.56003 4.6021 9.06352 4.39788 8.58503 4.15884C8.463 4.09804 8.3871 3.97517 8.3871 3.83846C8.3871 3.64136 8.54771 3.48033 8.74523 3.48033H10.2432C10.1295 3.88081 10.0645 4.30184 10.0645 4.73839C10.0645 4.75139 10.0658 4.76439 10.0658 4.77697ZM5.29771 2.06458C5.75481 1.88175 6.23161 1.74839 6.71429 1.66829L10.6277 1.01578C11.0651 0.942811 11.5071 0.95665 11.9378 1.03591C11.3683 1.4582 10.8999 2.00629 10.5736 2.64162H8.74523C8.08516 2.64162 7.54839 3.17839 7.54839 3.83846C7.54839 4.29429 7.80168 4.70442 8.21013 4.90907C9.06603 5.33681 9.96974 5.67104 10.8969 5.90252L12.1542 6.21704C12.4054 6.28036 12.5806 6.50513 12.5806 6.76388C12.5806 7.05617 12.3521 7.30275 12.0606 7.32539L7.79413 7.65375C6.74868 7.73552 5.70239 7.57449 4.72823 7.18449L4.19355 6.97062V2.50617L5.29771 2.06458ZM3.35484 6.927L0.83871 7.55604V1.92075L3.35484 2.54978V6.927Z" fill="white"/>
<path d="M24.8484 15.4646L23.0091 12.7061H23.0644C23.7581 12.7061 24.3225 12.1416 24.3225 11.448C24.3225 10.7544 23.7581 10.1899 23.0644 10.1899H7.12897C6.43535 10.1899 5.8709 10.7544 5.8709 11.448C5.8709 12.1416 6.43535 12.7061 7.12897 12.7061H7.18432L5.34545 15.4646C4.59187 16.5943 4.19348 17.9098 4.19348 19.2681C4.19348 23.0495 7.26945 26.1254 11.0508 26.1254H12.1612H18.8709H19.1426C22.924 26.1254 25.9999 23.0495 25.9999 19.2681C25.9999 17.9098 25.6015 16.5943 24.8484 15.4646ZM6.70961 11.448C6.70961 11.2165 6.8979 11.0287 7.12897 11.0287H23.0644C23.2955 11.0287 23.4838 11.2165 23.4838 11.448C23.4838 11.6795 23.2955 11.8674 23.0644 11.8674H7.12897C6.8979 11.8674 6.70961 11.6795 6.70961 11.448ZM11.7419 21.9319V21.0932H12.5806V21.9319H13.4193V21.0932H13.8386H14.258V21.9319H15.0967V21.0932H15.9354V21.9319H16.7741V21.0932H17.1935C17.4245 21.0932 17.6128 21.281 17.6128 21.5125V22.3512C17.6128 22.5827 17.4245 22.7706 17.1935 22.7706H12.1612H10.4838C10.2527 22.7706 10.0644 22.5827 10.0644 22.3512V21.5125C10.0644 21.281 10.2527 21.0932 10.4838 21.0932H10.9032V21.9319H11.7419ZM13.4193 19.8351V18.9964C13.4193 18.7649 13.6076 18.577 13.8386 18.577H14.258V19.4157H15.0967V18.577H15.9354V19.4157H16.7741V18.577H17.6128V19.4157H18.4515V18.577H18.8709H19.2903V19.4157H20.129V18.577H20.5483C20.7794 18.577 20.9677 18.7649 20.9677 18.9964V19.8351C20.9677 20.0666 20.7794 20.2545 20.5483 20.2545H17.1935H13.8386C13.6076 20.2545 13.4193 20.0666 13.4193 19.8351ZM13.4193 16.8996V16.0609H14.258V16.8996H15.0967V16.0609H15.9354V16.8996H16.7741V16.0609H17.6128V16.8996H18.4515V16.0609H18.8709C19.102 16.0609 19.2903 16.2488 19.2903 16.4803V17.319C19.2903 17.5505 19.102 17.7383 18.8709 17.7383H13.8386H12.1612C11.9302 17.7383 11.7419 17.5505 11.7419 17.319V16.4803C11.7419 16.2488 11.9302 16.0609 12.1612 16.0609H12.5806V16.8996H13.4193ZM12.1612 25.2867C11.9302 25.2867 11.7419 25.0988 11.7419 24.8674V24.0287C11.7419 23.7972 11.9302 23.6093 12.1612 23.6093H12.5806V24.448H13.4193V23.6093H14.258V24.448H15.0967V23.6093H15.9354V24.448H16.7741V23.6093H17.1935H17.6128V24.448H18.4515V23.6093H18.8709C19.102 23.6093 19.2903 23.7972 19.2903 24.0287V24.8674C19.2903 25.0988 19.102 25.2867 18.8709 25.2867H12.1612ZM20.0765 25.2066C20.1072 25.098 20.129 24.9856 20.129 24.8674V24.0287C20.129 23.335 19.5645 22.7706 18.8709 22.7706H18.3744C18.4214 22.6389 18.4515 22.4988 18.4515 22.3512V21.5125C18.4515 21.3649 18.4214 21.2248 18.3744 21.0932H20.5483C21.2419 21.0932 21.8064 20.5287 21.8064 19.8351V18.9964C21.8064 18.3028 21.2419 17.7383 20.5483 17.7383H20.0518C20.0988 17.6067 20.129 17.4666 20.129 17.319V16.4803C20.129 15.7867 19.5645 15.2222 18.8709 15.2222H12.1612C11.4676 15.2222 10.9032 15.7867 10.9032 16.4803V17.319C10.9032 18.0126 11.4676 18.577 12.1612 18.577H12.6577C12.6108 18.7087 12.5806 18.8488 12.5806 18.9964V19.8351C12.5806 19.9827 12.6108 20.1228 12.6577 20.2545H10.4838C9.79019 20.2545 9.22574 20.8189 9.22574 21.5125V22.3512C9.22574 23.0448 9.79019 23.6093 10.4838 23.6093H10.9803C10.9334 23.741 10.9032 23.881 10.9032 24.0287V24.8674C10.9032 25.0137 10.9329 25.1525 10.9795 25.2829C7.69384 25.2444 5.03219 22.5626 5.03219 19.2681C5.03219 18.0759 5.38151 16.9214 6.04284 15.9297L8.19203 12.7061H22.0014L24.1506 15.9301C24.8119 16.9218 25.1612 18.0763 25.1612 19.2686C25.1612 22.2682 22.9521 24.7554 20.0765 25.2066Z" fill="white"/>
<path d="M20.7025 13.7705L21.4002 13.3051L21.9597 14.1437L21.262 14.6092L20.7025 13.7705Z" fill="white"/>
<path d="M23.4528 16.3949L22.5159 14.9893L21.8181 15.4543L22.755 16.86C23.2318 17.5754 23.4838 18.4083 23.4838 19.2679L23.4817 19.403L24.32 19.4277C24.3217 19.3745 24.3225 19.3212 24.3225 19.2679C24.3225 18.2422 24.0218 17.2487 23.4528 16.3949Z" fill="white"/>
<path d="M6.2666 21.2542C6.40499 21.5863 6.57902 21.9055 6.78367 22.2024L7.47392 21.7255C7.30241 21.4769 7.15689 21.2102 7.04115 20.9321L6.2666 21.2542Z" fill="white"/>
<path d="M6.74084 16.3952C6.17177 17.249 5.87109 18.2424 5.87109 19.2682C5.87109 19.6292 5.90884 19.9907 5.98306 20.3413L6.80374 20.1677C6.74126 19.8741 6.7098 19.5714 6.7098 19.2682C6.7098 18.4081 6.96184 17.5757 7.43864 16.8602L7.53677 16.7126L6.83896 16.2476L6.74084 16.3952Z" fill="white"/>
</svg>
