<svg width="24" height="25" viewBox="0 0 24 25" fill="none" xmlns="http://www.w3.org/2000/svg">
<path d="M21.5 2.12549H21V4.62549C21 4.90186 20.7764 5.12549 20.5 5.12549C20.2236 5.12549 20 4.90186 20 4.62549V0.625488C20 0.349118 19.7764 0.125488 19.5 0.125488C19.2236 0.125488 19 0.349118 19 0.625488V2.12549H16V4.62549C16 4.90186 15.7764 5.12549 15.5 5.12549C15.2236 5.12549 15 4.90186 15 4.62549V0.625488C15 0.349118 14.7764 0.125488 14.5 0.125488C14.2236 0.125488 14 0.349118 14 0.625488V2.12549H11V4.62549C11 4.90186 10.7764 5.12549 10.5 5.12549C10.2236 5.12549 10 4.90186 10 4.62549V0.625488C10 0.349118 9.77637 0.125488 9.5 0.125488C9.22363 0.125488 9 0.349118 9 0.625488V2.12549H6V4.62549C6 4.90186 5.77637 5.12549 5.5 5.12549C5.22363 5.12549 5 4.90186 5 4.62549V0.625488C5 0.349118 4.77637 0.125488 4.5 0.125488C4.22363 0.125488 4 0.349118 4 0.625488V2.12549H2.5C1.12109 2.12549 0 3.24707 0 4.62549V7.12549H24V4.62549C24 3.24707 22.8789 2.12549 21.5 2.12549Z" fill="#FCB300"/>
<path d="M0 19.6255C0 21.0039 1.12109 22.1255 2.5 22.1255H13.0315C12.3818 21.1139 12 19.9145 12 18.6255C12 15.0414 14.9159 12.1255 18.5 12.1255C20.8168 12.1255 22.8487 13.3477 24 15.1773V8.12549H0V19.6255ZM8.5 11.1255H10.5C10.7764 11.1255 11 11.3491 11 11.6255C11 11.9019 10.7764 12.1255 10.5 12.1255H8.5C8.22363 12.1255 8 11.9019 8 11.6255C8 11.3491 8.22363 11.1255 8.5 11.1255ZM8.5 14.1255H10.5C10.7764 14.1255 11 14.3491 11 14.6255C11 14.9019 10.7764 15.1255 10.5 15.1255H8.5C8.22363 15.1255 8 14.9019 8 14.6255C8 14.3491 8.22363 14.1255 8.5 14.1255ZM8.5 17.1255H10.5C10.7764 17.1255 11 17.3491 11 17.6255C11 17.9019 10.7764 18.1255 10.5 18.1255H8.5C8.22363 18.1255 8 17.9019 8 17.6255C8 17.3491 8.22363 17.1255 8.5 17.1255ZM3.5 14.1255H5.5C5.77637 14.1255 6 14.3491 6 14.6255C6 14.9019 5.77637 15.1255 5.5 15.1255H3.5C3.22363 15.1255 3 14.9019 3 14.6255C3 14.3491 3.22363 14.1255 3.5 14.1255ZM3.5 17.1255H5.5C5.77637 17.1255 6 17.3491 6 17.6255C6 17.9019 5.77637 18.1255 5.5 18.1255H3.5C3.22363 18.1255 3 17.9019 3 17.6255C3 17.3491 3.22363 17.1255 3.5 17.1255Z" fill="#FCB300"/>
<path d="M18.5 13.1255C15.4678 13.1255 13 15.5928 13 18.6255C13 21.6582 15.4678 24.1255 18.5 24.1255C21.5322 24.1255 24 21.6582 24 18.6255C24 15.5928 21.5322 13.1255 18.5 13.1255ZM19.8535 19.979C19.7559 20.0767 19.6279 20.1255 19.5 20.1255C19.3721 20.1255 19.2441 20.0767 19.1465 19.979L18.1465 18.979C18.0527 18.8853 18 18.7583 18 18.6255V16.6255C18 16.3491 18.2236 16.1255 18.5 16.1255C18.7764 16.1255 19 16.3491 19 16.6255V18.4185L19.8535 19.272C20.0488 19.4673 20.0488 19.7837 19.8535 19.979Z" fill="#FCB300"/>
</svg>
