<svg width="10" height="7" viewBox="0 0 10 7" fill="none" xmlns="http://www.w3.org/2000/svg">
<path d="M0.326591 0.995776C0.238079 1.04372 0.131127 1.12486 0.0905595 1.18018C-0.00532832 1.31663 -0.0311443 1.64118 0.0426156 1.78501C0.0758076 1.84402 1.03469 2.82502 2.17796 3.96461C4.43133 6.2106 4.32438 6.12209 4.67105 6.05939C4.79275 6.03727 5.0546 5.79017 6.88385 3.96461C8.02712 2.82502 8.986 1.8477 9.01551 1.79238C9.04501 1.73706 9.06714 1.62274 9.06714 1.53422C9.06714 1.12117 8.6799 0.833504 8.2816 0.95152C8.14883 0.9884 7.86485 1.25762 6.32696 2.78814L4.53091 4.5842L2.7496 2.80658C1.52519 1.58217 0.927734 1.01053 0.835534 0.96996C0.647447 0.892512 0.518367 0.899888 0.326591 0.995776Z" fill="#222021"/>
</svg>
