<svg width="76" height="62" viewBox="0 0 76 62" fill="none" xmlns="http://www.w3.org/2000/svg">
<g opacity="0.1">
<path d="M21.6317 53.2877C18.9011 55.2707 16.3655 57.1236 13.7974 59.0091C8.79119 62.6499 2.06211 60.5694 0.436726 54.7831C-0.213427 52.475 -0.213425 50.0694 0.956851 47.8264C3.72 42.5277 6.54817 37.2289 9.27882 31.8977C10.8717 28.7444 14.0249 27.0215 16.1054 24.3559C19.1611 20.4875 22.997 21.5927 26.8004 22.2429C27.2555 22.3079 27.6456 22.828 28.0682 23.1531C29.8887 18.732 33.0744 16.1314 37.9506 16.0989C42.3391 16.0664 45.8174 18.6995 47.6053 23.2181C50.466 20.845 56.0248 21.0726 58.6905 23.6407C59.6332 24.5509 60.5109 25.5262 61.5511 26.2738C65.387 29.167 67.2075 33.4255 69.3205 37.489C71.2059 41.0648 73.0588 44.6732 74.9118 48.2815C76.6022 51.5973 75.5945 56.3759 72.7663 58.814C69.8081 61.3821 65.7121 61.5772 62.3963 59.3016C59.9908 57.6437 57.6827 55.8558 55.3097 54.1654C54.9846 53.9379 54.692 53.4502 54.2044 53.7103C53.8143 53.9379 54.0094 54.393 53.9769 54.7505C53.8143 56.5385 53.6518 58.2939 53.4892 60.0818C53.4242 60.6344 53.3917 61.2196 52.6115 61.1871C51.7988 61.1546 51.8639 60.5044 51.8964 59.9843C52.2539 55.9533 52.6115 51.8899 52.9691 47.8589C53.0016 47.3063 53.1642 46.8512 53.7818 46.8837C54.497 46.9162 54.627 47.4363 54.562 48.054C54.562 48.119 54.562 48.1515 54.562 48.2165C53.5217 50.8821 55.1471 52.1825 57.1301 53.4828C59.4707 55.0106 61.6812 56.7335 64.0867 58.2939C62.5914 55.4332 63.014 52.5725 63.6966 49.6794C64.0542 48.1515 63.6966 46.5911 62.949 45.2908C61.6812 43.0153 60.2508 40.8698 58.7555 38.7568C57.0651 36.3187 54.5945 35.246 51.6688 35.2134C51.3437 35.2134 51.0187 35.2459 50.6936 35.1809C48.5806 34.9534 47.1177 35.376 45.6224 37.3915C41.6239 42.7552 33.237 42.1701 29.5311 36.5138C28.8484 35.4735 28.1333 35.1159 26.9305 35.1484C24.0048 35.1809 20.9165 34.9209 18.6735 37.1964C15.7803 40.1221 13.4398 43.4704 12.237 47.5013C11.9769 48.4116 12.042 49.2893 12.2695 50.232C12.9197 52.8976 13.1472 55.5633 11.6194 58.3589C13.1472 57.7413 14.0899 56.7985 15.1627 56.0509C16.8206 54.9131 18.3484 53.6128 20.0388 52.5725C21.3392 51.7598 21.6967 50.8171 21.4367 49.3543C21.3066 48.5416 20.5915 47.0787 22.1193 47.0137C23.3871 46.9487 22.932 48.4441 23.0296 49.2242C23.4196 52.7676 23.7122 56.3434 24.0048 59.8868C24.0698 60.4719 24.1998 61.1546 23.2896 61.2196C22.3144 61.3171 22.4769 60.5369 22.4119 59.9843C22.0543 57.8388 21.8593 55.6933 21.6317 53.2877Z" fill="#202020"/>
<path d="M60.2833 9.89024C57.4226 10.6379 54.5619 11.3856 51.7012 12.1333C51.0836 12.2958 50.4334 12.7184 49.8808 12.1333C49.2957 11.5156 49.9133 10.898 50.0759 10.3128C50.596 8.75248 51.2136 7.1921 51.9613 5.17663C49.9783 6.18437 48.4505 6.96456 46.8901 7.74474C45.3623 8.49242 45.1022 8.36238 44.8096 6.63947C44.6471 5.63173 44.5171 4.59149 44.387 3.58375C44.322 3.12865 44.387 2.70605 45.0047 2.60852C45.5573 2.511 45.7848 2.86859 45.9474 3.29119C46.0124 3.45373 46.0449 3.61626 46.0774 3.74629C46.565 6.08684 46.5325 6.05434 48.678 4.91657C49.9783 4.23391 51.2787 3.58375 52.579 2.9336C53.0341 2.70605 53.5867 2.28345 54.0418 2.77106C54.4644 3.22617 54.2693 3.7788 54.0743 4.29893C53.7167 5.24165 53.3266 6.21687 52.969 7.1596C52.6115 8.10232 52.2864 9.07755 51.8313 10.3128C55.3746 9.37012 58.6904 8.49241 62.0062 7.67972C62.8189 7.48468 63.8591 6.50944 64.4768 7.6147C65.1269 8.78498 63.7291 9.17507 63.0789 9.79272C60.9659 11.7757 58.7554 13.6611 56.4149 15.7741C58.1703 16.0992 59.6656 16.3593 61.1935 16.6518C61.7136 16.7494 62.1362 16.9444 62.0387 17.5946C61.9412 18.3097 61.421 18.2772 60.9334 18.2122C58.7879 17.8871 56.6424 17.6271 54.5619 17.1395C53.2941 16.8469 53.6517 16.0342 54.3669 15.384C55.9272 13.9862 57.5201 12.5884 59.113 11.1905C59.5681 10.8005 60.0232 10.4429 60.5108 10.0528C60.4133 10.0528 60.3483 9.95525 60.2833 9.89024Z" fill="#212121"/>
<path d="M18.1858 16.034C16.3004 13.1408 14.6425 10.6702 13.0496 8.19964C12.6595 7.582 11.8468 6.96435 12.367 6.18416C12.9196 5.37147 13.8623 5.92411 14.61 6.08665C17.2431 6.60677 19.9087 7.12688 22.5419 7.77704C23.9397 8.10211 24.2648 7.74454 23.8422 6.41172C23.5821 5.59903 23.4846 4.72132 23.3871 3.87612C23.257 2.5433 23.6471 2.25074 24.8499 2.77086C26.6378 3.55104 28.3932 4.39625 30.1161 5.30646C31.0589 5.79408 31.5465 5.79408 31.8391 4.6238C32.1641 3.32349 32.7168 2.0882 33.1394 0.78789C33.3344 0.170244 33.692 -0.154827 34.3421 0.0727271C34.9598 0.300281 34.8623 0.852907 34.6997 1.30801C34.0821 3.19346 33.3994 5.0789 32.7493 6.96435C32.4242 7.87456 31.8716 7.87457 31.0914 7.51698C29.2384 6.63927 27.3855 5.79407 25.4025 4.85135C25.2725 6.02162 25.6951 7.02937 25.8902 8.06962C26.2152 9.72751 25.9227 10.0851 24.2648 9.76001C21.209 9.14236 18.1533 8.49221 14.805 7.77704C16.528 10.4102 18.0558 12.7832 19.6162 15.1563C19.9738 15.7414 20.6564 16.2615 20.3638 17.0092C20.0063 17.8869 19.1286 17.4968 18.5109 17.5293C16.6255 17.6269 14.7075 17.5944 12.8221 17.6269C12.1719 17.6269 11.4893 17.5619 11.4893 16.8142C11.4893 16.0665 12.2044 16.0015 12.8546 16.0015C14.48 16.0665 16.1378 16.034 18.1858 16.034Z" fill="#212121"/>
<path d="M26.0853 24.0639C25.0125 24.0639 23.9397 24.1939 22.8995 24.0313C21.5342 23.8363 20.8515 24.3889 20.2989 25.5592C19.4862 27.2496 18.576 28.9075 17.6983 30.5979C17.1131 31.7682 16.3004 32.6459 14.9351 32.8734C13.9599 33.036 13.5698 33.6536 13.3422 34.5963C12.1395 40.1226 10.8717 45.6489 9.63637 51.1752C9.18126 53.2557 7.75093 54.6861 6.02802 54.8161C4.2401 54.9461 2.61471 53.9059 1.93205 52.248C1.44444 51.0452 1.7045 49.8749 2.25713 48.8022C5.02028 43.5034 7.84845 38.2047 10.5791 32.9059C11.3918 31.3456 12.497 30.0453 13.7648 28.875C15.0326 27.7047 16.2679 26.5019 17.5357 25.3317C20.2664 22.8936 22.3794 22.5035 26.0853 24.0639Z" fill="white"/>
<path d="M49.3606 24.0311C52.9039 22.4382 55.5696 22.8608 58.1052 25.2989C58.2352 25.3964 58.3327 25.5589 58.4627 25.624C63.3064 29.1673 65.972 34.3035 68.5401 39.5047C70.0355 42.5605 71.6284 45.5512 73.2212 48.5419C74.0989 50.1672 74.2615 51.6951 73.1237 53.223C72.0834 54.6208 70.6856 54.9459 69.0928 54.6208C67.2723 54.2307 66.4271 52.8979 66.0695 51.2075C64.8343 45.7787 63.5989 40.3824 62.3962 34.9537C62.1361 33.8159 61.8435 32.9707 60.5107 32.7756C59.4055 32.6131 58.6578 31.8329 58.1052 30.7927C57.1299 28.8747 56.0572 26.9893 55.1145 25.0388C54.7244 24.2261 54.2042 23.9661 53.359 23.9986C52.0912 24.0961 50.8234 24.0311 49.3606 24.0311Z" fill="white"/>
<path d="M37.6254 39.3746C33.1718 39.2446 29.4009 35.4737 29.2709 31.0527C29.2384 30.24 29.4334 29.8824 30.3437 29.9149C33.7895 30.0449 36.8452 29.0372 39.2833 26.5016C39.8359 25.949 40.096 26.079 40.5511 26.5666C41.9164 28.0295 43.6068 28.9397 45.4922 29.4923C46.3374 29.7199 46.4349 30.1425 46.4349 30.8901C46.3374 35.6688 42.3715 39.5047 37.6254 39.3746Z" fill="white"/>
<path d="M46.4024 27.9968C44.0293 27.5417 42.3389 26.2739 40.9411 24.5835C40.0959 23.5758 39.6083 23.6733 38.8281 24.616C36.6826 27.1841 33.9194 28.4194 30.5711 28.3544C29.5634 28.3544 29.3033 27.9643 29.2708 26.9891C29.1408 21.8529 32.9117 17.6594 37.7879 17.6594C42.7615 17.6269 46.4674 21.5928 46.4349 26.794C46.4024 27.1516 46.4024 27.5417 46.4024 27.9968Z" fill="white"/>
<path d="M13.8948 39.8301C14.2524 38.3022 14.6424 36.8069 14.9025 35.279C15.0325 34.4663 15.6827 34.4013 16.1703 34.2713C18.6084 33.5561 21.0465 32.8734 23.4845 32.2558C24.6873 31.9632 25.5325 31.3781 25.305 30.0453C25.0774 28.68 24.0697 28.4524 22.8669 28.6149C22.1842 28.7125 21.5016 28.94 20.8189 28.7125C21.5341 25.9168 21.7616 25.7218 24.4272 25.7868C24.9149 25.7868 25.4675 25.9493 25.8901 25.7868C28.1006 24.9091 27.678 26.4694 27.678 27.6722C27.7105 29.3301 27.5155 31.0205 27.9056 32.6784C28.1006 33.5236 27.743 33.6861 26.9954 33.6536C25.5975 33.6211 24.1672 33.5236 22.7694 33.6861C19.6161 34.0762 17.0805 35.6041 15.3251 38.3022C14.9675 38.8874 14.5774 39.44 14.1873 40.0251C14.0573 39.9276 13.9923 39.8626 13.8948 39.8301Z" fill="#FAFAFA"/>
<path d="M47.9953 25.3633C49.5231 26.0784 50.921 25.6558 52.3188 25.7209C53.229 25.7534 55.0169 27.4763 54.9844 28.3865C54.9519 28.7441 54.7244 28.8091 54.4318 28.7766C53.7816 28.7116 53.1315 28.6465 52.4813 28.5815C51.4411 28.4515 50.6284 28.7766 50.3683 29.8493C50.1083 30.9871 50.6284 31.7348 51.7337 32.0599C54.1067 32.775 56.4798 33.5227 58.8853 34.0753C60.2507 34.3679 60.8683 35.0506 61.0309 36.3834C61.1934 37.5536 61.486 38.6914 61.7135 39.8617C61.1934 39.9592 61.1609 39.5691 61.0309 39.3416C58.7878 35.4082 55.472 33.4577 50.8885 33.6202C49.9132 33.6527 48.7105 33.9778 48.0278 33.5227C47.2476 33.0026 48.0603 31.7673 47.9953 30.8246C47.9303 29.0366 47.9953 27.3137 47.9953 25.3633Z" fill="white"/>
<path d="M64.8017 53.125C67.1098 56.4408 68.9302 56.9934 72.9611 55.8557C71.5633 58.1637 69.4178 59.334 67.6299 58.7813C65.5169 58.0662 64.4766 56.1157 64.8017 53.125Z" fill="#F5F5F5"/>
<path d="M10.9042 52.9629C11.1317 56.2137 10.1565 58.0666 8.07602 58.7493C6.32061 59.3019 4.14259 58.1641 2.84229 55.8886C6.22308 57.0263 8.95373 56.4412 10.9042 52.9629Z" fill="#F6F6F6"/>
<path d="M52.1888 30.0771C53.4241 30.2397 54.6269 30.4022 55.8622 30.5973C56.2848 30.6623 56.6099 30.9549 56.4798 31.3775C56.3823 31.8001 55.9597 31.605 55.6672 31.5075C54.4644 31.1499 53.2941 30.8248 52.0913 30.4672C52.1238 30.3372 52.1563 30.2072 52.1888 30.0771Z" fill="#D6D6D6"/>
<path d="M23.4847 30.4997C22.0869 30.8898 20.6891 31.2799 19.3237 31.67C20.3315 29.8821 22.0219 30.5323 23.3872 30.0771C23.3872 30.2072 23.4197 30.3697 23.4847 30.4997Z" fill="#E4E0E1"/>
</g>
</svg>
