<svg width="29" height="26" viewBox="0 0 29 26" fill="none" xmlns="http://www.w3.org/2000/svg">
<path d="M19.9375 0.125488C18.9761 0.125488 18.0541 0.501716 17.3742 1.17141C16.6944 1.8411 16.3125 2.74939 16.3125 3.69647V14.4094C16.3125 19.998 19.3031 23.6815 24.9346 25.0688C25.1661 25.1277 25.4071 25.1409 25.6439 25.1075C25.8806 25.0742 26.1082 24.9951 26.3138 24.8748C26.5193 24.7544 26.6986 24.5951 26.8414 24.4062C26.9842 24.2173 27.0876 24.0024 27.1457 23.7739C27.2038 23.5454 27.2155 23.3078 27.18 23.0749C27.1445 22.842 27.0625 22.6183 26.9389 22.4166C26.8152 22.215 26.6523 22.0395 26.4595 21.9002C26.2667 21.7609 26.0478 21.6606 25.8154 21.605C21.779 20.6104 19.9375 18.3429 19.9375 14.4094V12.6239H25.375C26.2895 12.6242 27.1704 12.284 27.841 11.6714C28.5116 11.0588 28.9223 10.2192 28.9909 9.32078L29 9.05295V3.69647C29 2.74939 28.6181 1.8411 27.9383 1.17141C27.2584 0.501716 26.3364 0.125488 25.375 0.125488H19.9375ZM3.625 0.125488C2.66359 0.125488 1.74156 0.501716 1.06174 1.17141C0.38192 1.8411 0 2.74939 0 3.69647V14.4094C0 19.998 2.99063 23.6815 8.62206 25.0688C8.85358 25.1277 9.09464 25.1409 9.33135 25.1075C9.56806 25.0742 9.79574 24.9951 10.0013 24.8748C10.2068 24.7544 10.3861 24.5951 10.5289 24.4062C10.6717 24.2173 10.7751 24.0024 10.8332 23.7739C10.8913 23.5454 10.903 23.3078 10.8675 23.0749C10.832 22.842 10.75 22.6183 10.6264 22.4166C10.5027 22.215 10.3398 22.0395 10.147 21.9002C9.95418 21.7609 9.73529 21.6606 9.50294 21.605C5.4665 20.6104 3.625 18.3429 3.625 14.4094V12.6239H9.0625C9.97705 12.6242 10.8579 12.284 11.5285 11.6714C12.1991 11.0588 12.6098 10.2192 12.6784 9.32078L12.6875 9.05295V3.69647C12.6875 2.74939 12.3056 1.8411 11.6258 1.17141C10.9459 0.501716 10.0239 0.125488 9.0625 0.125488H3.625Z" fill="#A23337"/>
</svg>
