<svg width="28" height="29" viewBox="0 0 28 29" fill="none" xmlns="http://www.w3.org/2000/svg">
<path d="M26 12.3098V12.1255C26 5.50879 20.6167 0.125488 14 0.125488C7.3833 0.125488 2 5.50879 2 12.1255V12.3098C0.838501 12.7239 0 13.8235 0 15.1255V17.1255C0 18.7798 1.3457 20.1255 3 20.1255H4C4.55225 20.1255 5 19.6777 5 19.1255V13.1255C5 12.5732 4.55225 12.1255 4 12.1255C4 6.61133 8.48584 2.12549 14 2.12549C19.5142 2.12549 24 6.61133 24 12.1255C23.4478 12.1255 23 12.5732 23 13.1255V19.1255C23 19.6777 23.4478 20.1255 24 20.1255H25C26.6543 20.1255 28 18.7798 28 17.1255V15.1255C28 13.8235 27.1615 12.7239 26 12.3098Z" fill="#00BD39"/>
<path d="M23 21.1255C23 23.8823 20.7568 26.1255 18 26.1255H17C17 25.0225 16.103 24.1255 15 24.1255H13C11.897 24.1255 11 25.0225 11 26.1255C11 27.2285 11.897 28.1255 13 28.1255H18C21.8599 28.1255 25 24.9854 25 21.1255H23Z" fill="#00BD39"/>
<path d="M13.9659 16.0348L21.7341 11.1465C21.3907 10.5398 20.747 10.1255 20.0001 10.1255H8.00006C7.25098 10.1255 6.60583 10.5422 6.26318 11.1518L13.9659 16.0348Z" fill="#00BD39"/>
<path d="M16.1465 15.9789C16.1185 15.9509 16.1034 15.9162 16.0834 15.8838L14.231 17.0494C14.15 17.1006 14.0572 17.126 13.9649 17.126C13.8721 17.126 13.7789 17.1002 13.6973 17.0484L11.9 15.9091C11.8837 15.9321 11.8742 15.9583 11.8536 15.9789L6.98999 20.8425C7.28741 21.0179 7.62982 21.1254 8.00006 21.1254H20.0001C20.3703 21.1254 20.7127 21.0179 21.0101 20.8425L16.1465 15.9789Z" fill="#00BD39"/>
<path d="M21.7172 20.1354C21.8925 19.838 22.0001 19.4956 22.0001 19.1254V12.1606L16.9316 15.3499L21.7172 20.1354Z" fill="#00BD39"/>
<path d="M11.0489 15.3696L6 12.1689V19.1255C6 19.4957 6.10754 19.8381 6.2829 20.1356L11.0489 15.3696Z" fill="#00BD39"/>
</svg>
