<svg width="61" height="83" viewBox="0 0 61 83" fill="none" xmlns="http://www.w3.org/2000/svg">
<g opacity="0.1">
<path d="M27.9352 22.2569C23.6645 17.9862 19.7634 14.0029 15.7391 10.1018C14.7536 9.15734 14.6715 8.41818 15.3285 7.26838C16.3551 5.42049 17.3406 3.53153 18.1619 1.60151C18.7368 0.328515 19.517 0 20.8722 0C27.3193 0.0821286 33.7253 0.0821286 40.1724 0C41.5686 0 42.2667 0.492771 42.8005 1.68364C43.6218 3.49047 44.402 5.33836 45.4697 6.98093C46.4142 8.45925 46.0035 9.36266 44.8537 10.4714C41.1169 14.044 37.4211 17.7398 33.7253 21.3945C33.5199 21.5998 33.3968 21.8051 33.1504 22.1337C35.0394 22.5443 36.8462 22.8728 38.5709 23.3656C51.3419 26.7739 60.2939 38.2719 60.8277 51.8232C61.3205 64.5531 52.9023 76.7903 40.7473 81.102C38.2834 81.9644 35.7785 82.5393 33.1915 82.7857C32.5344 82.8267 32.0006 82.9499 31.5899 82.2929C31.2204 81.6358 31.631 81.2663 31.9595 80.8556C32.5755 80.0343 33.1093 79.4184 32.3291 78.2275C31.5078 76.9956 33.4789 73.5872 34.9572 73.1766C45.3875 70.3842 51.5061 62.6231 51.4651 52.0695C51.424 40.7769 41.3222 31.0857 30.0295 31.5374C19.7223 31.948 11.3863 39.0522 9.62054 48.9487C7.89584 58.6398 13.1931 68.2078 22.5147 72.15C24.7733 73.0945 27.1961 73.6694 29.6599 73.6283C30.2759 73.6283 30.9329 73.5462 31.2614 74.2443C31.5489 74.9013 31.2204 75.4351 30.7687 75.8868C29.2903 77.3241 29.3314 78.9256 30.0295 80.7324C30.6044 82.2518 30.1937 82.991 28.3459 82.9088C10.0722 81.9644 -3.47898 63.855 0.79171 46.0742C3.9126 33.0978 13.5216 24.3511 26.7033 22.4622C26.9907 22.4211 27.2782 22.339 27.9352 22.2569Z" fill="#202020"/>
<path d="M28.3459 75.6813C27.4835 76.7489 26.9497 77.7755 27.5656 79.0896C28.1816 80.4037 27.5246 80.6911 26.2516 80.5269C19.0243 79.4181 13.0289 76.0919 8.55289 70.425C1.20238 61.1034 -0.0706444 50.7142 5.18559 40.0785C10.4008 29.525 19.4349 24.2687 31.1793 24.3098C47.3587 24.3919 60.2939 39.2162 58.5692 55.3544C57.173 68.1665 47.564 78.5558 35.2447 80.3626C35.45 79.6234 35.4911 78.9664 35.0394 78.3094C34.0949 76.9132 34.7108 75.517 36.3534 75.0242C44.9359 72.4372 50.767 66.9346 52.8613 58.1879C55.1609 48.702 52.3685 40.4892 44.7716 34.4116C37.38 28.5805 28.9618 27.7181 20.5026 31.7425C12.0844 35.7668 7.60838 42.7477 7.44412 52.1514C7.2388 64.2654 15.2874 73.5459 27.4835 75.5581C27.6889 75.5991 27.9352 75.6402 28.3459 75.6813Z" fill="#FDFDFD"/>
<path d="M30.44 20.6965C28.7153 16.8775 27.196 13.4692 25.5945 9.81445C28.6743 9.81445 31.4256 9.81445 34.218 9.81445C35.2446 9.81445 35.1214 10.3894 34.834 11.0053C33.3967 14.0851 32.0005 17.206 30.44 20.6965Z" fill="#FCFCFC"/>
<path d="M18.6545 9.81445C20.0507 9.81445 21.2005 9.81445 22.3503 9.81445C22.8431 9.81445 23.2948 9.85552 23.5412 10.3894C24.6499 12.8532 25.7176 15.3171 26.58 17.9041C24.034 15.276 21.488 12.689 18.6545 9.81445Z" fill="#F7F7F7"/>
<path d="M34.136 17.5756C35.1215 15.3581 36.2714 12.9764 37.298 10.5536C37.5854 9.89658 37.9961 9.81445 38.571 9.81445C39.6797 9.81445 40.8295 9.81445 42.3488 9.81445C39.3512 12.6068 36.723 15.1118 34.136 17.5756Z" fill="#F7F7F7"/>
<path d="M43.3755 7.76108C41.774 7.76108 40.4189 7.76108 39.0638 7.76108C39.0638 7.55576 38.9817 7.39151 39.0227 7.30938C39.7208 6.11851 40.0083 3.9421 41.2402 4.02423C42.3079 4.0653 42.6774 6.2417 43.3755 7.76108Z" fill="#EEEEEE"/>
<path d="M17.4226 7.80208C18.2439 6.11845 18.9009 4.80439 19.599 3.4082C19.8044 3.65459 19.9686 3.77778 20.0507 3.9831C20.6256 5.17397 22.2272 6.48802 21.6523 7.47357C21.0774 8.41805 19.1473 7.63783 17.4226 7.80208Z" fill="#EFEFEF"/>
<path d="M28.2227 2.13525C29.8652 2.13525 31.0971 2.13525 32.6576 2.13525C31.8773 3.5725 31.2203 4.8455 30.399 6.36488C29.6599 4.8455 29.0029 3.61357 28.2227 2.13525Z" fill="#F2F2F2"/>
<path d="M35.491 7.71981C34.3823 7.71981 33.3968 7.71981 32.3291 7.71981C32.5755 6.36469 33.3968 5.29702 34.0127 3.94189C34.9161 5.0917 35.0393 6.40576 35.491 7.71981Z" fill="#E5E5E5"/>
<path d="M37.1748 6.11844C36.682 4.68119 36.2713 3.49033 35.7786 2.17627C37.0516 2.17627 38.0782 2.17627 39.269 2.17627C38.9405 3.61352 37.996 4.64013 37.1748 6.11844Z" fill="#EEEEEE"/>
<path d="M23.4591 5.79019C22.8431 4.68145 22.2272 3.57272 21.488 2.29972C22.6378 1.88908 24.1983 1.72482 24.6089 2.25866C25.3891 3.3674 23.9929 4.5172 23.4591 5.79019Z" fill="#F0F0F0"/>
<path d="M26.6211 4.10645C27.4013 4.64028 27.5656 5.33838 27.853 5.91328C28.0994 6.44711 28.7564 7.06308 28.3868 7.55585C27.8941 8.17181 26.9907 7.76117 26.2926 7.80223C25.4302 7.88436 25.5123 7.22733 25.6766 6.6935C25.923 5.83115 26.2515 5.00986 26.6211 4.10645Z" fill="#E8E8E8"/>
</g>
</svg>
