<svg width="29" height="26" viewBox="0 0 29 26" fill="none" xmlns="http://www.w3.org/2000/svg">
<path d="M9.0625 0.125488C10.0239 0.125488 10.9459 0.501716 11.6258 1.17141C12.3056 1.8411 12.6875 2.74939 12.6875 3.69647V14.4094C12.6875 19.998 9.69688 23.6815 4.06544 25.0688C3.83392 25.1277 3.59286 25.1409 3.35615 25.1075C3.11944 25.0742 2.89176 24.9951 2.68623 24.8748C2.4807 24.7544 2.30138 24.5951 2.15859 24.4062C2.0158 24.2173 1.91238 24.0024 1.85427 23.7739C1.79617 23.5454 1.78453 23.3078 1.82003 23.0749C1.85553 22.842 1.93747 22.6183 2.06112 22.4166C2.18478 22.215 2.3477 22.0395 2.54051 21.9002C2.73332 21.7609 2.95221 21.6606 3.18456 21.605C7.221 20.6104 9.0625 18.3429 9.0625 14.4094V12.6239H3.625C2.71046 12.6242 1.8296 12.284 1.15901 11.6714C0.488415 11.0588 0.0776535 10.2192 0.00906271 9.32078L0 9.05295V3.69647C0 2.74939 0.381918 1.8411 1.06174 1.17141C1.74156 0.501716 2.66359 0.125488 3.625 0.125488H9.0625ZM25.375 0.125488C26.3364 0.125488 27.2584 0.501716 27.9383 1.17141C28.6181 1.8411 29 2.74939 29 3.69647V14.4094C29 19.998 26.0094 23.6815 20.3779 25.0688C20.1464 25.1277 19.9054 25.1409 19.6687 25.1075C19.4319 25.0742 19.2043 24.9951 18.9987 24.8748C18.7932 24.7544 18.6139 24.5951 18.4711 24.4062C18.3283 24.2173 18.2249 24.0024 18.1668 23.7739C18.1087 23.5454 18.097 23.3078 18.1325 23.0749C18.168 22.842 18.25 22.6183 18.3736 22.4166C18.4973 22.215 18.6602 22.0395 18.853 21.9002C19.0458 21.7609 19.2647 21.6606 19.4971 21.605C23.5335 20.6104 25.375 18.3429 25.375 14.4094V12.6239H19.9375C19.023 12.6242 18.1421 12.284 17.4715 11.6714C16.8009 11.0588 16.3902 10.2192 16.3216 9.32078L16.3125 9.05295V3.69647C16.3125 2.74939 16.6944 1.8411 17.3742 1.17141C18.0541 0.501716 18.9761 0.125488 19.9375 0.125488H25.375Z" fill="#A23337"/>
</svg>
