<svg width="24" height="25" viewBox="0 0 24 25" fill="none" xmlns="http://www.w3.org/2000/svg">
<path d="M4.82667 10.5122C6.74667 14.2855 9.84 17.3788 13.6133 19.2988L16.5467 16.3655C16.92 15.9922 17.44 15.8855 17.9067 16.0322C19.4 16.5255 21 16.7922 22.6667 16.7922C23.0203 16.7922 23.3594 16.9326 23.6095 17.1827C23.8595 17.4327 24 17.7719 24 18.1255V22.7922C24 23.1458 23.8595 23.4849 23.6095 23.735C23.3594 23.985 23.0203 24.1255 22.6667 24.1255C16.6551 24.1255 10.8897 21.7374 6.63891 17.4866C2.38809 13.2358 0 7.4704 0 1.45882C0 1.1052 0.140476 0.766061 0.390524 0.516013C0.640573 0.265964 0.979711 0.125488 1.33333 0.125488H6C6.35362 0.125488 6.69276 0.265964 6.94281 0.516013C7.19286 0.766061 7.33333 1.1052 7.33333 1.45882C7.33333 3.12549 7.6 4.72549 8.09333 6.21882C8.24 6.68549 8.13333 7.20549 7.76 7.57882L4.82667 10.5122Z" fill="#A234FD"/>
</svg>
