<svg width="43" height="31" viewBox="0 0 43 31" fill="none" xmlns="http://www.w3.org/2000/svg">
<path d="M32.9023 30.5486C30.2213 30.5486 27.89 29.4995 25.9667 27.4014C25.0342 26.4106 24.3348 25.2449 23.8103 23.8462C23.2858 22.4474 22.9944 21.0487 22.9944 19.6499C22.9944 16.6775 23.9852 13.6469 25.9085 10.6162C27.8318 7.58556 30.4544 4.96288 33.7182 2.86473C36.4575 1.058 38.6139 0.125488 40.1875 0.125488C40.8286 0.125488 41.3532 0.300334 41.7611 0.708306C42.1691 1.058 42.3439 1.58253 42.3439 2.22363C42.3439 3.15614 41.7611 3.97209 40.5372 4.5549C37.6814 6.01195 35.5832 7.46899 34.301 8.92604C33.0771 10.2665 32.436 11.2573 32.436 11.8984C32.436 12.4812 32.9023 12.8309 33.8348 13.0058L34.4176 13.1223L35.117 13.1806C37.1569 13.472 38.7887 14.4628 40.0709 16.0364C41.3531 17.61 41.9942 19.5333 41.9942 21.8063C41.9942 24.1376 41.2366 26.1192 39.663 27.8093C37.9145 29.5578 35.6415 30.5486 32.9023 30.5486Z" fill="#A23337"/>
<path d="M10.3471 30.5486C7.66615 30.5486 5.33487 29.4995 3.41157 27.4014C2.47906 26.4106 1.7797 25.2449 1.25517 23.8462C0.730632 22.4474 0.439209 21.0487 0.439209 19.6499C0.439209 16.6775 1.43 13.6469 3.3533 10.6162C5.2766 7.58556 7.89929 4.96288 11.1631 2.86473C13.9023 1.058 16.0587 0.125488 17.6323 0.125488C18.2734 0.125488 18.798 0.300334 19.206 0.708306C19.6139 1.058 19.7888 1.58253 19.7888 2.22363C19.7888 3.15614 19.2059 3.97209 17.982 4.5549C15.1262 6.01195 13.0281 7.46899 11.7459 8.92604C10.4637 10.2665 9.88087 11.2573 9.88087 11.8984C9.88087 12.4812 10.3471 12.8309 11.2796 13.0058L11.8624 13.1223L12.5618 13.1806C14.6017 13.472 16.2336 14.4628 17.5158 16.0364C18.798 17.61 19.4391 19.5333 19.4391 21.8063C19.4391 24.1376 18.6814 26.1192 17.1078 27.8093C15.4176 29.5578 13.1446 30.5486 10.3471 30.5486Z" fill="#A23337"/>
</svg>
